<svg width="98" height="25" viewBox="0 0 98 25" fill="none" xmlns="http://www.w3.org/2000/svg">
<path d="M0.6235 0.899998V24H10.144C17.371 24 22.1395 19.413 22.1395 12.45C22.1395 5.487 17.371 0.899998 10.144 0.899998H0.6235ZM10.0945 5.2065C14.962 5.2065 17.3215 8.2095 17.3215 12.45C17.3215 16.641 14.962 19.6935 10.0945 19.6935H5.227V5.2065H10.0945ZM38.2878 0.470998C31.1763 0.470998 26.1603 5.553 26.1603 12.45C26.1603 19.347 31.1763 24.429 38.2878 24.429C45.3993 24.429 50.4318 19.347 50.4318 12.45C50.4318 5.553 45.3993 0.470998 38.2878 0.470998ZM38.2878 4.893C42.5448 4.893 45.6138 7.962 45.6138 12.45C45.6138 16.938 42.5448 20.007 38.2878 20.007C34.0473 20.007 30.9618 16.938 30.9618 12.45C30.9618 7.962 34.0473 4.893 38.2878 4.893ZM64.5112 13.341H54.7597V17.103H64.5112V13.341ZM74.5515 0.899998H69.948V24H74.5515V0.899998ZM97.6293 0.899998H78.7038V5.2065H85.8648V24H90.4683V5.2065H97.6293V0.899998Z" fill="#217AC0"/>
</svg>
