<svg width="14" height="14" viewBox="0 0 14 14" fill="none" xmlns="http://www.w3.org/2000/svg">
<path d="M11.3181 2.32166H9.57681V1.45104C9.57681 1.37407 9.54624 1.30025 9.49181 1.24583C9.43739 1.1914 9.36357 1.16083 9.2866 1.16083C9.20963 1.16083 9.13582 1.1914 9.08139 1.24583C9.02697 1.30025 8.99639 1.37407 8.99639 1.45104V2.32166H4.93348V1.45104C4.93348 1.37407 4.9029 1.30025 4.84848 1.24583C4.79405 1.1914 4.72024 1.16083 4.64327 1.16083C4.5663 1.16083 4.49248 1.1914 4.43806 1.24583C4.38363 1.30025 4.35306 1.37407 4.35306 1.45104V2.32166H2.61181C2.22711 2.32212 1.8583 2.47515 1.58628 2.74717C1.31425 3.01919 1.16123 3.388 1.16077 3.7727V11.3181C1.16123 11.7028 1.31425 12.0716 1.58628 12.3437C1.8583 12.6157 2.22711 12.7687 2.61181 12.7692H11.3181C11.7028 12.7689 12.0717 12.6159 12.3438 12.3438C12.6158 12.0718 12.7688 11.7029 12.7691 11.3181V3.7727C12.7688 3.38796 12.6158 3.01906 12.3438 2.747C12.0717 2.47494 11.7028 2.32197 11.3181 2.32166ZM12.1887 11.3181C12.1887 11.7987 11.7986 12.1887 11.3181 12.1887H2.61181C2.13006 12.1887 1.74118 11.7987 1.74118 11.3181V6.38458H12.1887V11.3181ZM12.1887 5.80416H1.74118V3.7727C1.74118 3.29212 2.13006 2.90208 2.61181 2.90208H4.35306V3.7727C4.35306 3.84967 4.38363 3.92349 4.43806 3.97791C4.49248 4.03234 4.5663 4.06291 4.64327 4.06291C4.72024 4.06291 4.79405 4.03234 4.84848 3.97791C4.9029 3.92349 4.93348 3.84967 4.93348 3.7727V2.90208H8.99639V3.7727C8.99639 3.84967 9.02697 3.92349 9.08139 3.97791C9.13582 4.03234 9.20963 4.06291 9.2866 4.06291C9.36357 4.06291 9.43739 4.03234 9.49181 3.97791C9.54624 3.92349 9.57681 3.84967 9.57681 3.7727V2.90208H11.3181C11.7986 2.90208 12.1887 3.29212 12.1887 3.7727V5.80416Z" fill="#646464"/>
</svg>
