<svg width="13" height="15" viewBox="0 0 13 15" fill="none" xmlns="http://www.w3.org/2000/svg">
<path d="M10.24 5.17667C10.3395 5.27628 10.3953 5.41131 10.3953 5.55209C10.3953 5.69287 10.3395 5.8279 10.24 5.92751L8.82331 7.34417C8.7237 7.44366 8.58868 7.49954 8.44789 7.49954C8.30711 7.49954 8.17209 7.44366 8.07248 7.34417L7.36414 6.63584C7.31195 6.5872 7.27009 6.52855 7.24105 6.46339C7.21201 6.39822 7.1964 6.32787 7.19514 6.25654C7.19388 6.18521 7.20701 6.11436 7.23372 6.04821C7.26044 5.98206 7.30021 5.92197 7.35066 5.87152C7.40111 5.82107 7.4612 5.7813 7.52735 5.75459C7.5935 5.72787 7.66435 5.71474 7.73568 5.716C7.80701 5.71726 7.87736 5.73287 7.94253 5.76191C8.00769 5.79095 8.06634 5.83281 8.11498 5.88501L8.44789 6.21792L9.48914 5.17667C9.58875 5.07719 9.72378 5.02131 9.86456 5.02131C10.0053 5.02131 10.1404 5.07719 10.24 5.17667ZM10.24 9.82334C10.2922 9.7747 10.334 9.71605 10.3631 9.65089C10.3921 9.58572 10.4077 9.51537 10.409 9.44404C10.4102 9.37271 10.3971 9.30186 10.3704 9.23571C10.3437 9.16956 10.3039 9.10947 10.2535 9.05902C10.203 9.00857 10.1429 8.9688 10.0768 8.94209C10.0106 8.91537 9.93977 8.90224 9.86844 8.9035C9.79711 8.90476 9.72676 8.92037 9.6616 8.94941C9.59643 8.97845 9.53778 9.02031 9.48914 9.07251L8.44789 10.1138L8.11498 9.78084C8.06634 9.72864 8.00769 9.68678 7.94253 9.65774C7.87736 9.62871 7.80701 9.6131 7.73568 9.61184C7.66435 9.61058 7.5935 9.6237 7.52735 9.65042C7.4612 9.67714 7.40111 9.71691 7.35066 9.76735C7.30021 9.8178 7.26044 9.87789 7.23372 9.94404C7.20701 10.0102 7.19388 10.081 7.19514 10.1524C7.1964 10.2237 7.21201 10.2941 7.24105 10.3592C7.27009 10.4244 7.31195 10.483 7.36414 10.5317L8.07248 11.24C8.17209 11.3395 8.30711 11.3954 8.44789 11.3954C8.58868 11.3954 8.7237 11.3395 8.82331 11.24L10.24 9.82334ZM2.95831 6.26042C2.95831 6.11953 3.01428 5.9844 3.11391 5.88477C3.21354 5.78514 3.34867 5.72917 3.48956 5.72917H5.96873C6.10962 5.72917 6.24475 5.78514 6.34438 5.88477C6.44401 5.9844 6.49998 6.11953 6.49998 6.26042C6.49998 6.40132 6.44401 6.53644 6.34438 6.63607C6.24475 6.7357 6.10962 6.79167 5.96873 6.79167H3.48956C3.34867 6.79167 3.21354 6.7357 3.11391 6.63607C3.01428 6.53644 2.95831 6.40132 2.95831 6.26042ZM3.48956 9.62501C3.34867 9.62501 3.21354 9.68098 3.11391 9.78061C3.01428 9.88023 2.95831 10.0154 2.95831 10.1563C2.95831 10.2972 3.01428 10.4323 3.11391 10.5319C3.21354 10.6315 3.34867 10.6875 3.48956 10.6875H5.96873C6.10962 10.6875 6.24475 10.6315 6.34438 10.5319C6.44401 10.4323 6.49998 10.2972 6.49998 10.1563C6.49998 10.0154 6.44401 9.88023 6.34438 9.78061C6.24475 9.68098 6.10962 9.62501 5.96873 9.62501H3.48956ZM9.32339 1.83334C9.27984 1.44375 9.09422 1.08388 8.80203 0.822527C8.50984 0.561177 8.13158 0.416684 7.73956 0.416672H5.2604C4.86838 0.416684 4.49011 0.561177 4.19793 0.822527C3.90574 1.08388 3.72012 1.44375 3.67656 1.83334H2.42706C2.00437 1.83334 1.599 2.00125 1.30011 2.30014C1.00123 2.59902 0.833313 3.0044 0.833313 3.42709V12.9896C0.833313 13.4123 1.00123 13.8177 1.30011 14.1165C1.599 14.4154 2.00437 14.5833 2.42706 14.5833H10.5729C10.7822 14.5833 10.9894 14.5421 11.1828 14.462C11.3762 14.3819 11.5519 14.2645 11.6998 14.1165C11.8478 13.9685 11.9652 13.7929 12.0453 13.5995C12.1254 13.4061 12.1666 13.1989 12.1666 12.9896V3.42709C12.1666 3.21779 12.1254 3.01055 12.0453 2.81719C11.9652 2.62382 11.8478 2.44813 11.6998 2.30014C11.5519 2.15214 11.3762 2.03475 11.1828 1.95466C10.9894 1.87456 10.7822 1.83334 10.5729 1.83334H9.32339ZM5.2604 3.60417H7.73956C8.29206 3.60417 8.77869 3.32296 9.06485 2.89584H10.5729C10.7138 2.89584 10.8489 2.95181 10.9485 3.05144C11.0482 3.15107 11.1041 3.28619 11.1041 3.42709V12.9896C11.1041 13.1305 11.0482 13.2656 10.9485 13.3652C10.8489 13.4649 10.7138 13.5208 10.5729 13.5208H2.42706C2.28617 13.5208 2.15104 13.4649 2.05141 13.3652C1.95178 13.2656 1.89581 13.1305 1.89581 12.9896V3.42709C1.89581 3.28619 1.95178 3.15107 2.05141 3.05144C2.15104 2.95181 2.28617 2.89584 2.42706 2.89584H3.9351C4.22127 3.32296 4.7079 3.60417 5.2604 3.60417ZM5.2604 1.47917H7.73956C7.88046 1.47917 8.01558 1.53514 8.11521 1.63477C8.21484 1.7344 8.27081 1.86953 8.27081 2.01042C8.27081 2.15132 8.21484 2.28644 8.11521 2.38607C8.01558 2.4857 7.88046 2.54167 7.73956 2.54167H5.2604C5.1195 2.54167 4.98437 2.4857 4.88475 2.38607C4.78512 2.28644 4.72915 2.15132 4.72915 2.01042C4.72915 1.86953 4.78512 1.7344 4.88475 1.63477C4.98437 1.53514 5.1195 1.47917 5.2604 1.47917Z" fill="white"/>
</svg>
