<svg width="18" height="20" viewBox="0 0 18 20" fill="none" xmlns="http://www.w3.org/2000/svg">
<path d="M4.50205 1.6C4.62618 1.24891 4.85615 0.944956 5.16026 0.730035C5.46437 0.515115 5.82766 0.399807 6.20005 0.400002H9.80005C10.1724 0.399807 10.5357 0.515115 10.8398 0.730035C11.144 0.944956 11.3739 1.24891 11.4981 1.6H13.4001C13.8774 1.6 14.3353 1.78964 14.6728 2.12721C15.0104 2.46478 15.2001 2.92261 15.2001 3.4V15.9808C14.6849 16.2371 14.2647 16.6507 14.0001 17.1616V3.4C14.0001 3.24087 13.9368 3.08826 13.8243 2.97574C13.7118 2.86322 13.5592 2.8 13.4001 2.8H11.4981C11.3739 3.1511 11.144 3.45505 10.8398 3.66997C10.5357 3.88489 10.1724 4.0002 9.80005 4H6.20005C5.82766 4.0002 5.46437 3.88489 5.16026 3.66997C4.85615 3.45505 4.62618 3.1511 4.50205 2.8H2.60005C2.44092 2.8 2.28831 2.86322 2.17579 2.97574C2.06326 3.08826 2.00005 3.24087 2.00005 3.4V17.8C2.00005 17.9591 2.06326 18.1117 2.17579 18.2243C2.28831 18.3368 2.44092 18.4 2.60005 18.4H4.10005C4.10005 18.832 4.20085 19.2388 4.38085 19.6H2.60005C2.12266 19.6 1.66482 19.4104 1.32726 19.0728C0.989691 18.7352 0.800049 18.2774 0.800049 17.8V3.4C0.800049 2.92261 0.989691 2.46478 1.32726 2.12721C1.66482 1.78964 2.12266 1.6 2.60005 1.6H4.50205ZM6.20005 1.6C6.04092 1.6 5.88831 1.66322 5.77578 1.77574C5.66326 1.88826 5.60005 2.04087 5.60005 2.2C5.60005 2.35913 5.66326 2.51174 5.77578 2.62427C5.88831 2.73679 6.04092 2.8 6.20005 2.8H9.80005C9.95918 2.8 10.1118 2.73679 10.2243 2.62427C10.3368 2.51174 10.4001 2.35913 10.4001 2.2C10.4001 2.04087 10.3368 1.88826 10.2243 1.77574C10.1118 1.66322 9.95918 1.6 9.80005 1.6H6.20005ZM8.30005 18.4C8.30005 18.7978 8.14201 19.1794 7.86071 19.4607C7.57941 19.742 7.19787 19.9 6.80005 19.9C6.40223 19.9 6.02069 19.742 5.73939 19.4607C5.45808 19.1794 5.30005 18.7978 5.30005 18.4C5.30005 18.0022 5.45808 17.6206 5.73939 17.3393C6.02069 17.058 6.40223 16.9 6.80005 16.9C7.19787 16.9 7.57941 17.058 7.86071 17.3393C8.14201 17.6206 8.30005 18.0022 8.30005 18.4ZM11.6 19.9C11.9979 19.9 12.3794 19.742 12.6607 19.4607C12.942 19.1794 13.1001 18.7978 13.1001 18.4C13.1001 18.0022 12.942 17.6206 12.6607 17.3393C12.3794 17.058 11.9979 16.9 11.6 16.9C11.2022 16.9 10.8207 17.058 10.5394 17.3393C10.2581 17.6206 10.1 18.0022 10.1 18.4C10.1 18.7978 10.2581 19.1794 10.5394 19.4607C10.8207 19.742 11.2022 19.9 11.6 19.9ZM16.4001 19.9C16.7979 19.9 17.1794 19.742 17.4607 19.4607C17.742 19.1794 17.9001 18.7978 17.9001 18.4C17.9001 18.0022 17.742 17.6206 17.4607 17.3393C17.1794 17.058 16.7979 16.9 16.4001 16.9C16.0022 16.9 15.6207 17.058 15.3394 17.3393C15.0581 17.6206 14.9001 18.0022 14.9001 18.4C14.9001 18.7978 15.0581 19.1794 15.3394 19.4607C15.6207 19.742 16.0022 19.9 16.4001 19.9Z" fill="#B1B0B0"/>
</svg>
